<svg width="258" height="195" viewBox="0 0 258 195" fill="none" xmlns="http://www.w3.org/2000/svg">
<g filter="url(#filter0_d_1_10)">
<path d="M138.5 180.214C134.214 183.5 148.643 195.643 113.214 182.857C77.8571 170.071 63.4286 125.5 56.2143 100.929C49 76.3572 68.3571 42.9286 81.1429 33.4286C93.9286 23.9286 117.5 20 120.143 19.6429C122.714 19.3572 126.357 17.7143 132.571 11.5C138.786 5.28573 158.429 -1.2857 172.571 1.64288C186.643 4.57145 221.714 38 244.929 85.2143C268.214 132.357 236.786 166.143 231.214 166.143C225.643 166.143 193.5 144.5 190.571 141.857C187.643 139.286 180.429 138.571 175.143 136.643C169.929 134.643 157.786 120.286 157.786 120.286C159.786 156.286 142.714 176.929 138.5 180.214Z" fill="#EAB363"/>
<path d="M124.714 184.786C117.143 184.786 97.5 171.071 76.5714 142.214C55.5714 113.357 61.5 73.0715 61.5 73.0715C57.5714 134.357 129 181.857 129 181.857C129 181.857 132.214 184.786 124.714 184.786Z" fill="#8C5E28"/>
<path d="M175.143 136.643C169.929 134.643 157.786 120.286 157.786 120.286C157.786 120.286 152.214 61.2858 157.786 35.4286C163.357 9.50004 166.286 9.21433 170.214 17.7143C173.786 25.3572 174.929 108.143 187.286 140.071C183.786 138.786 178.929 138.071 175.143 136.643Z" fill="#E2942D"/>
<path d="M119.143 21.6429C119.143 21.6429 108 30.7857 105.714 31.5C103.429 32.1429 77.5 45.5715 70.3571 59.6429C63.1429 73.7143 67.7143 52.1429 75.2143 44.5715C82.7857 37.0715 101.429 23.5715 119.143 21.6429Z" fill="#8C5E28"/>
<path d="M112.071 168.571C67.9286 192.5 15.6429 192.714 15.6429 192.714C21.5 177.929 4.57143 152.857 4.57143 152.857C53.2143 158 85.2143 140.071 85.2143 140.071C86.3572 141.571 112.071 168.571 112.071 168.571Z" fill="#E6E6E6"/>
<path opacity="0.1" d="M112.071 168.571C98.5714 175.857 84.3571 180.929 71.0714 184.5C66.2143 167.143 54.9286 157.286 45.8571 152C70.5 148.286 85.2143 140.071 85.2143 140.071C86.3571 141.571 112.071 168.571 112.071 168.571Z" fill="black"/>
<path d="M138.214 27.6429C131.286 40.8572 112.857 32.8572 117 32.6429C121.143 32.4286 133.571 15.3572 141.857 9.64286C150.214 3.92858 172.571 1.64286 175.071 5.21429C177.643 8.78572 170.5 9.35715 162.214 9.64286C153.857 9.85715 148.357 51.7857 148.357 51.7857C133.143 43.9286 145.143 14.4286 138.214 27.6429Z" fill="#F4CD9A"/>
</g>
<defs>
<filter id="filter0_d_1_10" x="0.571434" y="0.9245" width="256.842" height="199.79" filterUnits="userSpaceOnUse" color-interpolation-filters="sRGB">
<feFlood flood-opacity="0" result="BackgroundImageFix"/>
<feColorMatrix in="SourceAlpha" type="matrix" values="0 0 0 0 0 0 0 0 0 0 0 0 0 0 0 0 0 0 127 0" result="hardAlpha"/>
<feOffset dy="4"/>
<feGaussianBlur stdDeviation="2"/>
<feComposite in2="hardAlpha" operator="out"/>
<feColorMatrix type="matrix" values="0 0 0 0 0 0 0 0 0 0 0 0 0 0 0 0 0 0 0.25 0"/>
<feBlend mode="normal" in2="BackgroundImageFix" result="effect1_dropShadow_1_10"/>
<feBlend mode="normal" in="SourceGraphic" in2="effect1_dropShadow_1_10" result="shape"/>
</filter>
</defs>
</svg>
